<svg width="40" height="41" viewBox="0 0 40 41" fill="none" xmlns="http://www.w3.org/2000/svg">
<circle cx="20" cy="20.7729" r="19.5" fill="white" stroke="#3A3A3A"/>
<path d="M20.8565 12.4395C21.794 12.442 22.2698 12.447 22.6807 12.4586L22.8423 12.4645C23.029 12.4711 23.2132 12.4795 23.4357 12.4895C24.3223 12.5311 24.9273 12.6711 25.4582 12.877C26.0082 13.0886 26.4715 13.3753 26.9348 13.8378C27.3587 14.2542 27.6866 14.7582 27.8957 15.3145C28.1015 15.8453 28.2415 16.4503 28.2832 17.3378C28.2932 17.5595 28.3015 17.7436 28.3082 17.9311L28.3132 18.0928C28.3257 18.5028 28.3307 18.9786 28.3323 19.9161L28.3332 20.5378V21.6295C28.3352 22.2373 28.3288 22.8451 28.314 23.4528L28.309 23.6145C28.3023 23.802 28.294 23.9861 28.284 24.2078C28.2423 25.0953 28.1007 25.6995 27.8957 26.2311C27.6866 26.7874 27.3587 27.2913 26.9348 27.7078C26.5184 28.1317 26.0144 28.4596 25.4582 28.6686C24.9273 28.8745 24.3223 29.0145 23.4357 29.0561L22.8423 29.0811L22.6807 29.0861C22.2698 29.0978 21.794 29.1036 20.8565 29.1053L20.2348 29.1061H19.144C18.5359 29.1083 17.9278 29.1019 17.3198 29.087L17.1582 29.082C16.9603 29.0745 16.7626 29.0658 16.5648 29.0561C15.6782 29.0145 15.0732 28.8745 14.5415 28.6686C13.9855 28.4595 13.4819 28.1316 13.0657 27.7078C12.6414 27.2914 12.3132 26.7875 12.104 26.2311C11.8982 25.7003 11.7582 25.0953 11.7165 24.2078L11.6915 23.6145L11.6873 23.4528C11.672 22.8451 11.665 22.2373 11.6665 21.6295V19.9161C11.6642 19.3083 11.6703 18.7005 11.6848 18.0928L11.6907 17.9311C11.6973 17.7436 11.7057 17.5595 11.7157 17.3378C11.7573 16.4503 11.8973 15.8461 12.1032 15.3145C12.3129 14.758 12.6417 14.254 13.0665 13.8378C13.4825 13.4141 13.9858 13.0862 14.5415 12.877C15.0732 12.6711 15.6773 12.5311 16.5648 12.4895C16.7865 12.4795 16.9715 12.4711 17.1582 12.4645L17.3198 12.4595C17.9275 12.4446 18.5353 12.4383 19.1432 12.4403L20.8565 12.4395ZM19.9998 16.6061C18.8948 16.6061 17.8349 17.0451 17.0535 17.8265C16.2721 18.6079 15.8332 19.6677 15.8332 20.7728C15.8332 21.8779 16.2721 22.9377 17.0535 23.7191C17.8349 24.5005 18.8948 24.9395 19.9998 24.9395C21.1049 24.9395 22.1647 24.5005 22.9461 23.7191C23.7275 22.9377 24.1665 21.8779 24.1665 20.7728C24.1665 19.6677 23.7275 18.6079 22.9461 17.8265C22.1647 17.0451 21.1049 16.6061 19.9998 16.6061ZM19.9998 18.2728C20.3281 18.2727 20.6532 18.3373 20.9566 18.4629C21.2599 18.5885 21.5355 18.7726 21.7677 19.0047C21.9999 19.2368 22.1841 19.5124 22.3098 19.8157C22.4355 20.119 22.5002 20.4441 22.5002 20.7724C22.5003 21.1007 22.4357 21.4258 22.3101 21.7291C22.1845 22.0324 22.0004 22.3081 21.7683 22.5403C21.5362 22.7724 21.2606 22.9566 20.9573 23.0823C20.654 23.208 20.329 23.2727 20.0007 23.2728C19.3376 23.2728 18.7017 23.0094 18.2329 22.5406C17.764 22.0717 17.5007 21.4358 17.5007 20.7728C17.5007 20.1097 17.764 19.4739 18.2329 19.005C18.7017 18.5362 19.3368 18.2728 19.9998 18.2728ZM24.3757 15.3561C24.0994 15.3561 23.8344 15.4659 23.6391 15.6612C23.4437 15.8566 23.334 16.1215 23.334 16.3978C23.334 16.6741 23.4437 16.939 23.6391 17.1344C23.8344 17.3297 24.0994 17.4395 24.3757 17.4395C24.6519 17.4395 24.9169 17.3297 25.1122 17.1344C25.3076 16.939 25.4173 16.6741 25.4173 16.3978C25.4173 16.1215 25.3076 15.8566 25.1122 15.6612C24.9169 15.4659 24.6519 15.3561 24.3757 15.3561Z" fill="#3A3A3A"/>
</svg>
