<svg width="40" height="41" viewBox="0 0 40 41" fill="none" xmlns="http://www.w3.org/2000/svg">
<circle cx="20" cy="20.7729" r="19.5" fill="white" stroke="#3A3A3A"/>
<g clip-path="url(#clip0_250_8485)">
<path d="M26.8156 12.7729H13.1812C12.5281 12.7729 12 13.2886 12 13.9261V27.6167C12 28.2542 12.5281 28.7729 13.1812 28.7729H26.8156C27.4688 28.7729 28 28.2542 28 27.6198V13.9261C28 13.2886 27.4688 12.7729 26.8156 12.7729ZM16.7469 26.4073H14.3719V18.7698H16.7469V26.4073ZM15.5594 17.7292C14.7969 17.7292 14.1813 17.1136 14.1813 16.3542C14.1813 15.5948 14.7969 14.9792 15.5594 14.9792C16.3188 14.9792 16.9344 15.5948 16.9344 16.3542C16.9344 17.1104 16.3188 17.7292 15.5594 17.7292ZM25.6344 26.4073H23.2625V22.6948C23.2625 21.8104 23.2469 20.6698 22.0281 20.6698C20.7937 20.6698 20.6062 21.6354 20.6062 22.6323V26.4073H18.2375V18.7698H20.5125V19.8136H20.5437C20.8594 19.2136 21.6344 18.5792 22.7875 18.5792C25.1906 18.5792 25.6344 20.1604 25.6344 22.2167V26.4073Z" fill="#3A3A3A"/>
</g>
<defs>
<clipPath id="clip0_250_8485">
<rect width="16" height="16" fill="white" transform="translate(12 12.7729)"/>
</clipPath>
</defs>
</svg>
